<svg xmlns="http://www.w3.org/2000/svg" width="800" height="600" viewBox="0 0 800 600">
  <!-- Map background -->
  <rect width="800" height="600" fill="#E8F5E9" />
  
  <!-- Water features -->
  <path d="M100,150 Q200,100 300,150 T500,150 T700,150 V500 Q600,550 500,500 T300,500 T100,500 Z" fill="#BBDEFB" />
  <text x="400" y="320" font-family="Arial" font-size="24" text-anchor="middle" fill="#0D47A1">Lake Serenity</text>
  
  <!-- Forests -->
  <circle cx="150" cy="100" r="50" fill="#388E3C" opacity="0.7" />
  <circle cx="200" cy="80" r="60" fill="#388E3C" opacity="0.7" />
  <circle cx="250" cy="100" r="50" fill="#388E3C" opacity="0.7" />
  
  <circle cx="600" cy="150" r="70" fill="#388E3C" opacity="0.7" />
  <circle cx="650" cy="100" r="60" fill="#388E3C" opacity="0.7" />
  <circle cx="700" cy="150" r="50" fill="#388E3C" opacity="0.7" />
  
  <circle cx="150" cy="450" r="70" fill="#388E3C" opacity="0.7" />
  <circle cx="100" cy="500" r="60" fill="#388E3C" opacity="0.7" />
  <circle cx="200" cy="500" r="50" fill="#388E3C" opacity="0.7" />
  
  <circle cx="650" cy="450" r="60" fill="#388E3C" opacity="0.7" />
  <circle cx="700" cy="500" r="50" fill="#388E3C" opacity="0.7" />
  <circle cx="600" cy="500" r="70" fill="#388E3C" opacity="0.7" />
  
  <!-- Mountains -->
  <polygon points="50,50 100,10 150,50" fill="#795548" />
  <polygon points="650,50 700,5 750,50" fill="#795548" />
  
  <!-- Trails -->
  <path d="M400,50 C450,100 500,150 400,300 C300,150 350,100 400,50" stroke="#A1887F" stroke-width="8" fill="none" stroke-dasharray="0" />
  <text x="400" y="180" font-family="Arial" font-size="16" text-anchor="middle" fill="#5D4037">Woodland Wonder Trail</text>
  
  <path d="M100,300 C200,350 300,400 400,300 C500,250 600,300 700,300" stroke="#A1887F" stroke-width="8" fill="none" />
  <text x="400" y="350" font-family="Arial" font-size="16" text-anchor="middle" fill="#5D4037">Lake Explorer Path</text>
  
  <path d="M400,300 C450,400 500,450 400,550 C300,450 350,400 400,300" stroke="#FF5722" stroke-width="8" fill="none" />
  <text x="400" y="450" font-family="Arial" font-size="16" text-anchor="middle" fill="#D84315">Mountain Challenge Trail</text>
  
  <!-- Legend -->
  <rect x="550" y="20" width="230" height="120" rx="10" fill="white" stroke="#BDBDBD" />
  <text x="565" y="45" font-family="Arial" font-size="16" font-weight="bold">Legend</text>
  
  <line x1="565" y1="60" x2="595" y2="60" stroke="#A1887F" stroke-width="4" />
  <text x="600" y="65" font-family="Arial" font-size="14">Easy Trail</text>
  
  <line x1="565" y1="85" x2="595" y2="85" stroke="#FF9800" stroke-width="4" />
  <text x="600" y="90" font-family="Arial" font-size="14">Moderate Trail</text>
  
  <line x1="565" y1="110" x2="595" y2="110" stroke="#FF5722" stroke-width="4" />
  <text x="600" y="115" font-family="Arial" font-size="14">Difficult Trail</text>
  
  <!-- Landmarks -->
  <circle cx="400" cy="50" r="8" fill="#4CAF50" stroke="white" stroke-width="2" />
  <text x="420" y="55" font-family="Arial" font-size="12" fill="#33691E">Trailhead</text>
  
  <circle cx="400" cy="300" r="8" fill="#FFC107" stroke="white" stroke-width="2" />
  <text x="420" y="305" font-family="Arial" font-size="12" fill="#FF6F00">Viewpoint</text>
  
  <circle cx="100" cy="300" r="8" fill="#9C27B0" stroke="white" stroke-width="2" />
  <text x="120" y="305" font-family="Arial" font-size="12" fill="#6A1B9A">Historical Site</text>
  
  <circle cx="700" cy="300" r="8" fill="#2196F3" stroke="white" stroke-width="2" />
  <text x="680" y="290" font-family="Arial" font-size="12" fill="#0D47A1" text-anchor="end">Waterfall</text>
  
  <circle cx="400" cy="550" r="8" fill="#F44336" stroke="white" stroke-width="2" />
  <text x="420" y="555" font-family="Arial" font-size="12" fill="#B71C1C">Summit</text>
  
  <!-- Compass -->
  <circle cx="100" cy="100" r="30" fill="white" stroke="#BDBDBD" />
  <line x1="100" y1="70" x2="100" y2="130" stroke="#BDBDBD" stroke-width="2" />
  <line x1="70" y1="100" x2="130" y2="100" stroke="#BDBDBD" stroke-width="2" />
  <text x="100" y="85" font-family="Arial" font-size="16" text-anchor="middle" font-weight="bold">N</text>
  <text x="100" y="125" font-family="Arial" font-size="16" text-anchor="middle" font-weight="bold">S</text>
  <text x="125" y="105" font-family="Arial" font-size="16" text-anchor="middle" font-weight="bold">E</text>
  <text x="75" y="105" font-family="Arial" font-size="16" text-anchor="middle" font-weight="bold">W</text>
  
  <!-- Scale -->
  <line x1="650" y1="550" x2="750" y2="550" stroke="#000000" stroke-width="2" />
  <line x1="650" y1="545" x2="650" y2="555" stroke="#000000" stroke-width="2" />
  <line x1="700" y1="545" x2="700" y2="555" stroke="#000000" stroke-width="2" />
  <line x1="750" y1="545" x2="750" y2="555" stroke="#000000" stroke-width="2" />
  <text x="700" y="570" font-family="Arial" font-size="12" text-anchor="middle">0 1 2 km</text>
  
  <!-- Title -->
  <text x="400" y="30" font-family="Arial" font-size="24" text-anchor="middle" font-weight="bold">Trail Tale Map - Mountain Lake Region</text>
</svg>
