<svg width="400" height="225" viewBox="0 0 400 225" xmlns="http://www.w3.org/2000/svg">
  <!-- Content preview illustration -->
  <rect width="400" height="225" fill="#E8F5E9" rx="8"/>
  
  <!-- Content viewer -->
  <rect x="30" y="20" width="340" height="185" rx="10" fill="white" stroke="#e0e0e0" stroke-width="1"/>
  
  <!-- Preview header -->
  <rect x="30" y="20" width="340" height="40" rx="10" fill="#4CAF50"/>
  <rect x="50" y="37" width="100" height="6" rx="2" fill="white"/>
  <circle cx="350" cy="40" r="15" fill="white" opacity="0.3"/>
  <path d="M345 40 L355 40 M350 35 L350 45" stroke="white" stroke-width="2"/>
  
  <!-- Narrative text -->
  <rect x="50" y="80" width="300" height="6" rx="2" fill="#9E9E9E" opacity="0.3"/>
  <rect x="50" y="95" width="270" height="6" rx="2" fill="#9E9E9E" opacity="0.3"/>
  <rect x="50" y="110" width="290" height="6" rx="2" fill="#9E9E9E" opacity="0.3"/>
  <rect x="50" y="125" width="250" height="6" rx="2" fill="#9E9E9E" opacity="0.3"/>
  <rect x="50" y="140" width="280" height="6" rx="2" fill="#9E9E9E" opacity="0.3"/>
  
  <!-- Control buttons -->
  <rect x="50" y="170" width="80" height="20" rx="5" fill="#F44336" opacity="0.8"/>
  <rect x="150" y="170" width="80" height="20" rx="5" fill="#FFC107" opacity="0.8"/>
  <rect x="250" y="170" width="80" height="20" rx="5" fill="#4CAF50" opacity="0.8"/>
</svg>
