<svg width="400" height="225" viewBox="0 0 400 225" xmlns="http://www.w3.org/2000/svg">
  <!-- Narrative mode selection illustration -->
  <rect width="400" height="225" fill="#f5f5f5" rx="8"/>
  
  <!-- Two mode cards -->
  <rect x="20" y="20" width="170" height="185" rx="10" fill="white" stroke="#8D6E63" stroke-width="2"/>
  <rect x="210" y="20" width="170" height="185" rx="10" fill="white" stroke="#9C27B0" stroke-width="2"/>
  
  <!-- Historical Mode -->
  <circle cx="105" cy="60" r="25" fill="#8D6E63" opacity="0.2"/>
  <text x="105" y="68" text-anchor="middle" font-size="24" fill="#8D6E63">📚</text>
  
  <rect x="50" y="100" width="110" height="10" rx="2" fill="#8D6E63" opacity="0.6"/>
  <rect x="50" y="120" width="80" height="6" rx="2" fill="#8D6E63" opacity="0.4"/>
  <rect x="50" y="135" width="90" height="6" rx="2" fill="#8D6E63" opacity="0.4"/>
  <rect x="50" y="150" width="70" height="6" rx="2" fill="#8D6E63" opacity="0.4"/>
  
  <!-- Fantasy Mode -->
  <circle cx="295" cy="60" r="25" fill="#9C27B0" opacity="0.2"/>
  <text x="295" y="68" text-anchor="middle" font-size="24" fill="#9C27B0">✨</text>
  
  <rect x="240" y="100" width="110" height="10" rx="2" fill="#9C27B0" opacity="0.6"/>
  <rect x="240" y="120" width="80" height="6" rx="2" fill="#9C27B0" opacity="0.4"/>
  <rect x="240" y="135" width="90" height="6" rx="2" fill="#9C27B0" opacity="0.4"/>
  <rect x="240" y="150" width="70" height="6" rx="2" fill="#9C27B0" opacity="0.4"/>
  
  <!-- Selection indicators -->
  <circle cx="180" cy="60" r="15" stroke="#4CAF50" stroke-width="3" fill="none"/>
  <path d="M175 60 L180 65 L190 55" stroke="#4CAF50" stroke-width="3" fill="none"/>
</svg>
